<svg width="16" height="17" viewBox="0 0 16 17" fill="none" xmlns="http://www.w3.org/2000/svg">
<path d="M6.66683 14.2116C4.38112 14.9831 2.47635 14.2116 1.3335 11.8333" stroke="#2A353D" stroke-width="1.5" stroke-linecap="round" stroke-linejoin="round"/>
<path d="M6.66683 15.1666V13.0052C6.66683 12.6064 6.78946 12.2597 6.98711 11.9466C7.12268 11.7317 7.02982 11.4269 6.78489 11.3596C4.75612 10.8019 3.3335 9.90513 3.3335 6.93068C3.3335 6.15738 3.58687 5.43035 4.03224 4.79758C4.14307 4.6401 4.19849 4.56136 4.21181 4.49005C4.22514 4.41873 4.20197 4.32566 4.15565 4.13952C3.96709 3.38192 3.97931 2.57744 4.26231 1.85213C4.26231 1.85213 4.84711 1.66159 6.17815 2.49311C6.48205 2.68296 6.63399 2.77788 6.76782 2.79912C6.90164 2.82035 7.08055 2.77588 7.43839 2.68692C7.92771 2.56528 8.43189 2.49998 9.00016 2.49998C9.56844 2.49998 10.0726 2.56528 10.5619 2.68692C10.9198 2.77588 11.0987 2.82035 11.2325 2.79912C11.3663 2.77788 11.5183 2.68296 11.8222 2.49311C13.1532 1.66159 13.738 1.85213 13.738 1.85213C14.021 2.57744 14.0332 3.38192 13.8447 4.13952C13.7984 4.32566 13.7752 4.41873 13.7885 4.49005C13.8018 4.56136 13.8573 4.6401 13.9681 4.79758C14.4135 5.43035 14.6668 6.15738 14.6668 6.93068C14.6668 9.90513 13.2442 10.8019 11.2154 11.3596C10.9705 11.4269 10.8776 11.7317 11.0132 11.9466C11.2109 12.2597 11.3335 12.6064 11.3335 13.0052V15.1666" stroke="#2A353D" stroke-width="1.5" stroke-linecap="round" stroke-linejoin="round"/>
</svg>
