<svg width="108" height="22" viewBox="0 0 108 22" fill="none" xmlns="http://www.w3.org/2000/svg">
<path d="M8.19218 11.9253C8.19218 11.4046 8.61502 10.9824 9.13662 10.9824H14.4748C14.9964 10.9824 15.4192 11.4046 15.4192 11.9253V15.0322C15.4192 15.9001 14.7145 16.6036 13.8452 16.6036H9.13662C8.61502 16.6036 8.19218 16.1815 8.19218 15.6608V11.9253Z" fill="#7000FF"/>
<path d="M0 0.942856C0 0.422131 0.422842 0 0.944444 0H16.0556C16.5772 0 17 0.422131 17 0.942857V8.63778C17 9.15851 16.5772 9.58064 16.0556 9.58064H0.944445C0.422843 9.58064 0 9.15851 0 8.63778V0.942856Z" fill="#D0ABFF"/>
<path d="M8.19218 3.07189C8.19218 2.55116 8.61502 2.12903 9.13662 2.12903H14.4748C14.9964 2.12903 15.4192 2.55116 15.4192 3.07189V6.17881C15.4192 7.04668 14.7145 7.75024 13.8452 7.75024H9.13662C8.61502 7.75024 8.19218 7.3281 8.19218 6.80738V3.07189Z" fill="#7000FF"/>
<path d="M6.38528 4.01213C6.38528 5.12975 5.42469 6.03576 4.23975 6.03576C3.05481 6.03576 2.09422 5.12975 2.09422 4.01213C2.09422 2.89451 3.05481 1.98849 4.23975 1.98849C5.42469 1.98849 6.38528 2.89451 6.38528 4.01213Z" fill="#7000FF"/>
<path d="M1.4167 9.45098C1.41174 8.47212 1.9585 6.74193 4.24993 6.74193C6.5414 6.74193 7.08823 8.47218 7.0833 9.45104C7.08332 9.45368 7.08333 9.45634 7.08333 9.45899V21.0571C7.08333 21.5779 6.66049 22 6.13889 22H2.36111C1.83951 22 1.41667 21.5779 1.41667 21.0571V9.45899C1.41667 9.45632 1.41668 9.45365 1.4167 9.45098Z" fill="#7000FF"/>
<path d="M21.4809 11.0129C21.4809 10.6682 21.658 10.4959 22.0124 10.4959H23.9359V6.51469C23.9359 6.35958 23.9865 6.23893 24.0878 6.15276C24.189 6.04935 24.3156 5.99765 24.4674 5.99765H28.1626C28.4832 5.99765 28.6435 6.17 28.6435 6.51469V10.4959H33.0473L33.6042 6.51469C33.6042 6.35958 33.6548 6.23893 33.756 6.15276C33.8573 6.04935 33.9838 5.99765 34.1357 5.99765H37.7802C38.1008 5.99765 38.2611 6.17 38.2611 6.51469L37.6284 10.4959H39.9569C40.3112 10.4959 40.4884 10.6682 40.4884 11.0129V13.8049C40.4884 14.1496 40.3112 14.322 39.9569 14.322H22.0124C21.658 14.322 21.4809 14.1496 21.4809 13.8049V11.0129ZM21.5315 21.483C21.1772 21.483 21 21.2934 21 20.9142V18.0447C21 17.7 21.1772 17.5276 21.5315 17.5276H40.4377C40.7921 17.5276 40.9692 17.7 40.9692 18.0447V20.9142C40.9692 21.2934 40.7921 21.483 40.4377 21.483H21.5315ZM21.4809 1.9389C21.4809 1.5942 21.658 1.42186 22.0124 1.42186H39.9569C40.3112 1.42186 40.4884 1.5942 40.4884 1.9389V4.73091C40.4884 5.0756 40.3112 5.24794 39.9569 5.24794H22.0124C21.658 5.24794 21.4809 5.0756 21.4809 4.73091V1.9389Z" fill="#7000FF"/>
<path d="M43.8751 21.6122C43.5208 21.6122 43.3436 21.4399 43.3436 21.0952V10.1081C43.3436 9.76342 43.5208 9.59107 43.8751 9.59107H50.9871V5.11868H43.8245C43.4701 5.11868 43.293 4.94634 43.293 4.60164V1.9389C43.293 1.5942 43.4701 1.42186 43.8245 1.42186H55.1378C55.4922 1.42186 55.6693 1.5942 55.6693 1.9389V12.6416C55.6693 12.9863 55.4922 13.1586 55.1378 13.1586H48.0005V17.9154H50.7087C52.1091 17.9154 53.4758 17.8034 54.8088 17.5793C56.1587 17.3553 57.3145 16.9933 58.2762 16.4935V1.44771C58.2762 1.08578 58.4534 0.904817 58.8077 0.904817H62.427C62.7813 0.904817 62.9585 1.08578 62.9585 1.44771V21.483C62.9585 21.8277 62.7813 22 62.427 22H58.8077C58.4534 22 58.2762 21.8277 58.2762 21.483V19.8801C57.4326 20.4144 56.3105 20.8367 54.9101 21.1469C53.5096 21.4571 51.9404 21.6122 50.2025 21.6122H43.8751Z" fill="#7000FF"/>
<path d="M81.9865 22C81.6491 22 81.4803 21.8277 81.4803 21.483V13.4172H80.1136V21.2244C80.1136 21.5691 79.9449 21.7415 79.6074 21.7415H76.6968C76.3594 21.7415 76.1906 21.5691 76.1906 21.2244V1.60282C76.1906 1.24089 76.3594 1.05993 76.6968 1.05993H79.6074C79.9449 1.05993 80.1136 1.24089 80.1136 1.60282V9.02233H81.4803V1.44771C81.4803 1.08578 81.6491 0.904817 81.9865 0.904817H84.9224C85.2599 0.904817 85.4286 1.08578 85.4286 1.44771V21.483C85.4286 21.8277 85.2599 22 84.9224 22H81.9865ZM74.9758 15.3043C74.9758 16.4418 74.8577 17.4156 74.6214 18.2256C74.3852 19.0184 74.0646 19.6647 73.6597 20.1645C73.2547 20.6643 72.7654 21.0349 72.1917 21.2761C71.6349 21.5002 71.0275 21.6122 70.3694 21.6122C69.7114 21.6122 69.104 21.5002 68.5472 21.2761C67.9903 21.0349 67.5095 20.6643 67.1045 20.1645C66.6996 19.6647 66.379 19.0184 66.1427 18.2256C65.9234 17.4156 65.8137 16.4418 65.8137 15.3043V13.9859C65.8137 12.8484 65.9318 11.8833 66.1681 11.0905C66.4043 10.2805 66.7249 9.62554 67.1298 9.12573C67.5348 8.62593 68.0157 8.264 68.5725 8.03995C69.1461 7.79867 69.762 7.67803 70.4201 7.67803C71.0781 7.67803 71.6855 7.79867 72.2423 8.03995C72.7992 8.264 73.28 8.62593 73.685 9.12573C74.0899 9.62554 74.4021 10.2805 74.6214 11.0905C74.8577 11.8833 74.9758 12.8484 74.9758 13.9859V15.3043ZM65.3328 3.2832C65.3328 2.9385 65.51 2.76616 65.8643 2.76616H68.37V0.54289C68.37 0.180963 68.5472 0 68.9015 0H71.888C72.2424 0 72.4195 0.180963 72.4195 0.54289V2.76616H74.9252C75.2795 2.76616 75.4567 2.9385 75.4567 3.2832V6.07521C75.4567 6.24755 75.4145 6.4199 75.3301 6.59224C75.2457 6.76459 75.1108 6.85076 74.9252 6.85076H65.8643C65.6787 6.85076 65.5438 6.76459 65.4594 6.59224C65.375 6.4199 65.3328 6.24755 65.3328 6.07521V3.2832ZM71.4831 13.9859C71.4831 13.2103 71.3903 12.6071 71.2047 12.1763C71.0359 11.7282 70.7744 11.5041 70.4201 11.5041C70.0489 11.5041 69.7705 11.7282 69.5848 12.1763C69.3992 12.6071 69.3064 13.2103 69.3064 13.9859V15.3043C69.3064 16.0799 69.3908 16.6917 69.5595 17.1398C69.7451 17.5707 70.0151 17.7861 70.3694 17.7861C70.7407 17.7861 71.0191 17.5707 71.2047 17.1398C71.3903 16.6917 71.4831 16.0799 71.4831 15.3043V13.9859Z" fill="#7000FF"/>
<path d="M98.6102 10.1857C99.4538 10.1857 100.146 10.134 100.686 10.0306C101.242 9.92714 101.681 9.77203 102.002 9.56522C102.339 9.3584 102.567 9.09988 102.685 8.78966C102.82 8.4622 102.887 8.07442 102.887 7.62632C102.887 7.17822 102.812 6.79044 102.66 6.46298C102.525 6.13553 102.246 5.86839 101.824 5.66157C101.403 5.43752 100.812 5.2738 100.053 5.17039C99.2935 5.06698 98.3064 5.01528 97.0916 5.01528H88.6635C88.3092 5.01528 88.132 4.84293 88.132 4.49824V1.78378C88.132 1.43909 88.3092 1.26674 88.6635 1.26674H96.965C99.0404 1.26674 100.761 1.41324 102.128 1.70623C103.495 1.99922 104.583 2.43008 105.393 2.99882C106.203 3.55033 106.768 4.22248 107.089 5.01528C107.426 5.80807 107.595 6.69565 107.595 7.67803C107.595 8.6604 107.435 9.54798 107.114 10.3408C106.81 11.1163 106.304 11.7799 105.596 12.3314C104.904 12.8656 103.984 13.2793 102.837 13.5723C101.689 13.848 100.281 13.9859 98.6102 13.9859H97.5978C95.9273 13.9859 94.5184 13.848 93.3711 13.5723C92.2406 13.2793 91.321 12.8656 90.6123 12.3314C89.9205 11.7799 89.4228 11.1163 89.1191 10.3408C88.8154 9.54798 88.6635 8.6604 88.6635 7.67803V6.30787C88.6635 5.96318 88.8322 5.79083 89.1697 5.79083H92.8396C93.1939 5.79083 93.3711 5.96318 93.3711 6.30787V7.62632C93.3711 7.93655 93.4301 8.24677 93.5482 8.55699C93.6832 8.86722 93.9026 9.14297 94.2063 9.38425C94.5269 9.62554 94.9571 9.82374 95.4971 9.97885C96.0539 10.1167 96.7541 10.1857 97.5978 10.1857H98.6102ZM88.5623 21.483C88.2079 21.483 88.0308 21.302 88.0308 20.9401V18.0447C88.0308 17.7 88.2079 17.5276 88.5623 17.5276H91.2957V15.3819C91.2957 15.0372 91.4644 14.8649 91.8019 14.8649H95.4465C95.7839 14.8649 95.9527 15.0372 95.9527 15.3819V17.5276H100.078V15.3819C100.078 15.0372 100.247 14.8649 100.584 14.8649H104.229C104.566 14.8649 104.735 15.0372 104.735 15.3819V17.5276H107.468C107.823 17.5276 108 17.7 108 18.0447V20.9401C108 21.302 107.823 21.483 107.468 21.483H88.5623Z" fill="#7000FF"/>
</svg>
